HIERARCHY
ROOT Hips
{
	OFFSET 0.00000 0.00000 0.00000
	CHANNELS 6 Xposition Yposition Zposition Yrotation Zrotation Xrotation 
	JOINT Lumbar
	{
		OFFSET 0 0 0
		CHANNELS 3 Zrotation Xrotation Yrotation
		JOINT Neck
		{
			OFFSET 0.00 0.2701 0.00
			CHANNELS 3 Zrotation Xrotation Yrotation
			End Site
			{
				OFFSET 0.00 0.1379 0.00
			}
		}
		JOINT RightShoulder
		{
			OFFSET 0.0119 0.2289 0.1181
			CHANNELS 3 Zrotation Xrotation Yrotation
			JOINT RightElbow
			{
				OFFSET 0.00 -0.1475 0.00
				CHANNELS 2 Zrotation Yrotation
				JOINT RightWrist
				{
					OFFSET 0.00 -0.1605 0.00
					CHANNELS 2 Zrotation Xrotation
					End Site
					{
						OFFSET 0.0040 -0.1068 0.0006
					}
				}
			}
		}
		JOINT LeftShoulder
		{
			OFFSET 0.0119 0.2289 -0.1181
			CHANNELS 3 Zrotation Xrotation Yrotation
			JOINT LeftElbow
			{
				OFFSET 0.00 -0.1475 0.00
				CHANNELS 2 Zrotation Yrotation
				JOINT LeftWrist
				{
					OFFSET 0.00 -0.1605 0.00
					CHANNELS 2 Zrotation Xrotation
					End Site
					{
						OFFSET 0.0040 -0.1068 -0.0006
					}
				}
			}
		}
	}
	JOINT RightHip
	{
		OFFSET 0.0316 -0.0424 0.0458
		CHANNELS 3 Zrotation Xrotation Yrotation
		JOINT RightKnee
		{
			OFFSET 0.00 -0.2438 0.00
			CHANNELS 1 Zrotation
			JOINT RightAnkle
			{
				OFFSET 0.00 -0.2449 0.00
				CHANNELS 3 Zrotation Xrotation Yrotation
				End Site
				{
					OFFSET 0.1237 -0.0542 0.0051
				}
			}
		}
	}
	JOINT LeftHip
	{
		OFFSET 0.0316 -0.0424 -0.0458
		CHANNELS 3 Zrotation Xrotation Yrotation
		JOINT LeftKnee
		{
			OFFSET 0.00 -0.2438 0.00
			CHANNELS 1 Zrotation
			JOINT LeftAnkle
			{
				OFFSET 0.00 -0.2449 0.00
				CHANNELS 3 Zrotation Xrotation Yrotation
				End Site
				{
					OFFSET 0.1237 -0.0542 -0.0051
				}
			}
		}
	}
}
MOTION
Frames: 19
Frame Time: 0.02
-0.00072 0.0002 -2e-05 -175.50547 -35.5405 2.14999 49.24622 -0.26982 -4.92713 -12.44601 4.09273 -0.4046 -16.5459 -5.79198 -7.60142 19.78938 99.09741 12.41068 0.61464 -23.07322 11.13694 -11.38555 31.64274 -80.56312 9.08235 2.66395 40.09606 -3.98028 -5.54182 -20.42972 -7.10004 -4.70083 -3.14733 43.60246 3.52804 2.49542 -24.80734 -7.41435 3.8922 2.71402
-0.00053 0.00015 -0.00022 -175.48004 -35.5139 2.14218 49.17831 -0.26777 -4.90402 -12.37713 4.18143 -0.40535 -16.50958 -5.77215 -7.69123 19.77369 99.34264 12.40131 0.66449 -22.99091 10.75831 -10.05596 31.61783 -84.21904 10.04412 2.11108 40.09909 -3.94973 -5.51032 -20.44706 -7.10348 -4.70826 -3.15296 43.6123 3.62221 2.80249 -24.83028 -7.39836 3.84933 2.69066
-0.00034 0.00011 -0.00043 -175.45468 -35.48739 2.13439 49.11058 -0.26571 -4.881 -12.30838 4.26996 -0.40609 -16.47341 -5.75236 -7.78089 19.7582 99.58712 12.39191 0.7142 -22.90875 10.38068 -8.72992 31.59278 -87.86388 11.003 1.55936 40.10216 -3.91922 -5.47883 -20.46437 -7.1069 -4.71569 -3.15857 43.62215 3.71603 3.10825 -24.85317 -7.38242 3.80663 2.6674
-0.00015 6e-05 -0.00063 -175.42932 -35.46088 2.1266 49.04287 -0.26365 -4.85796 -12.2397 4.35841 -0.40684 -16.4372 -5.73258 -7.87045 19.74259 99.83161 12.38255 0.7639 -22.82666 10.00316 -7.40425 31.5679 -91.50877 11.96187 1.00803 40.10519 -3.88875 -5.44741 -20.48167 -7.11032 -4.7231 -3.16419 43.63197 3.80989 3.41431 -24.87604 -7.36648 3.7639 2.64411
5e-05 2e-05 -0.00083 -175.4039 -35.43426 2.1188 48.97503 -0.26161 -4.83483 -12.17092 4.44697 -0.40759 -16.40082 -5.71277 -7.9601 19.72674 100.07684 12.37325 0.81373 -22.74449 9.62478 -6.07548 31.54326 -95.16409 12.92344 0.45595 40.10815 -3.85825 -5.41604 -20.49899 -7.11376 -4.73054 -3.16982 43.64173 3.90411 3.72183 -24.89896 -7.35048 3.72099 2.62073
0.00024 -2e-05 -0.00104 -175.37866 -35.40799 2.11103 48.90753 -0.25952 -4.81205 -12.10224 4.53543 -0.40833 -16.36511 -5.69301 -8.04979 19.71198 100.31973 12.36365 0.86319 -22.66236 9.24882 -4.75542 31.51735 -98.78636 13.87651 -0.09486 40.11144 -3.82774 -5.38431 -20.51628 -7.11716 -4.73793 -3.1754 43.65178 3.99708 4.02388 -24.92176 -7.33468 3.67871 2.59772
0.00043 -7e-05 -0.00124 -175.35308 -35.38107 2.10319 48.83939 -0.25752 -4.78858 -12.03342 4.62401 -0.40908 -16.32807 -5.67318 -8.1393 19.69505 100.56706 12.35465 0.91334 -22.58017 8.8682 -3.41866 31.49398 -102.47246 14.84601 -0.6481 40.11408 -3.79728 -5.3533 -20.53362 -7.12063 -4.74539 -3.18107 43.66126 4.09247 4.33654 -24.94479 -7.3185 3.63521 2.57398
0.00062 -0.00011 -0.00145 -175.32783 -35.35473 2.09543 48.77186 -0.25543 -4.76577 -11.96477 4.71244 -0.40982 -16.29229 -5.65341 -8.22899 19.68013 100.81029 12.34513 0.96285 -22.49815 8.4922 -2.09844 31.46837 -106.09731 15.79968 -1.19822 40.11729 -3.76679 -5.32167 -20.5509 -7.12404 -4.7528 -3.18666 43.67123 4.18564 4.63956 -24.9676 -7.30267 3.59284 2.55091
0.00082 -0.00016 -0.00165 -175.30292 -35.32914 2.08772 48.70499 -0.25326 -4.74365 -11.8961 4.80092 -0.41057 -16.25794 -5.63372 -8.31889 19.66765 101.04863 12.33482 1.0116 -22.41585 8.12038 -0.79328 31.43953 -109.65834 16.73711 -1.74837 40.12133 -3.73615 -5.28907 -20.56816 -7.12735 -4.76013 -3.19217 43.68196 4.27608 4.93027 -24.99018 -7.28726 3.55185 2.52868
0.00101 -0.0002 -0.00186 -175.27585 -35.29936 2.07956 48.63404 -0.25165 -4.71719 -11.82688 4.8898 -0.41133 -16.21504 -5.61359 -8.40757 19.64108 101.31549 12.32858 1.06481 -22.33366 7.72012 0.61408 31.42779 -113.61989 17.77734 -2.30993 40.12099 -3.70604 -5.26143 -20.5857 -7.13118 -4.76787 -3.19817 43.68881 4.38215 5.29021 -25.0142 -7.2694 3.5029 2.50168
0.0012 -0.00025 -0.00205 -175.25345 -35.27833 2.07248 48.57191 -0.24881 -4.70014 -11.75926 4.9774 -0.41205 -16.19034 -5.59437 -8.49878 19.64423 101.5219 12.31406 1.10853 -22.25224 7.38272 1.79573 31.38098 -116.71481 18.59462 -2.83991 40.12963 -3.67505 -5.22374 -20.60255 -7.13392 -4.77474 -3.20312 43.70351 4.45531 5.50516 -25.03509 -7.25672 3.47073 2.4847
0.00134 -0.00028 -0.00221 -175.24304 -35.28235 2.06701 48.53237 -0.24273 -4.70722 -11.69266 5.06516 -0.41264 -16.21482 -5.57778 -8.59746 19.72987 101.5621 12.27405 1.12684 -22.16469 7.19509 2.43782 31.22856 -117.59257 18.84572 -3.34596 40.16543 -3.63941 -5.15443 -20.61824 -7.13352 -4.77917 -3.20517 43.74295 4.43668 5.30929 -25.04829 -7.25834 3.48525 2.49586
0.00147 -0.00032 -0.00235 -175.23749 -35.295 2.06282 48.502 -0.23539 -4.72409 -11.62839 5.15105 -0.41318 -16.25777 -5.5621 -8.69849 19.84522 101.54094 12.22621 1.13561 -22.07942 7.07428 2.84027 31.04268 -117.5745 18.86566 -3.80982 40.20982 -3.60324 -5.07551 -20.63314 -7.13205 -4.78273 -3.20617 43.78976 4.3853 4.9702 -25.05824 -7.26513 3.51647 2.51697
0.00161 -0.00036 -0.0025 -175.23024 -35.303 2.05896 48.46845 -0.22853 -4.73757 -11.56516 5.23524 -0.41373 -16.29265 -5.54586 -8.79821 19.94625 101.54899 12.1838 1.14823 -21.99852 6.93834 3.29798 30.87818 -117.85597 18.96013 -4.25055 40.24856 -3.56888 -5.00399 -20.64791 -7.13113 -4.78667 -3.20765 43.83106 4.34983 4.70517 -25.06902 -7.2695 3.53963 2.5331
0.00175 -0.0004 -0.00265 -175.2208 -35.31399 2.05143 48.43067 -0.22203 -4.74649 -11.49271 5.32976 -0.41433 -16.32593 -5.5301 -8.89932 20.05051 101.55426 12.1336 1.16246 -21.8949 6.74028 3.97433 30.68742 -118.57254 19.17824 -4.86504 40.2945 -3.52818 -4.92081 -20.66463 -7.12991 -4.79062 -3.20909 43.88123 4.30985 4.40211 -25.08227 -7.2742 3.56486 2.55117
0.00187 -0.00044 -0.00279 -175.21714 -35.32092 2.05164 48.40397 -0.2145 -4.76734 -11.44049 5.40284 -0.41482 -16.36726 -5.51371 -8.99762 20.15543 101.54708 12.09761 1.1716 -21.83903 6.68488 4.14769 30.54362 -118.19212 19.08999 -5.1136 40.3277 -3.50017 -4.8582 -20.67724 -7.1291 -4.79439 -3.2104 43.91499 4.27164 4.14415 -25.08991 -7.27941 3.58968 2.56756
0.00194 -0.00045 -0.00292 -175.22782 -35.3133 2.07468 48.40482 -0.20432 -4.81775 -11.4399 5.41346 -0.41499 -16.42309 -5.49413 -9.09242 20.25166 101.55366 12.10424 1.16419 -21.91555 7.02908 2.91164 30.53634 -114.81766 18.16162 -4.31022 40.32151 -3.51077 -4.86774 -20.67748 -7.12925 -4.79731 -3.2111 43.89882 4.2452 4.04774 -25.08055 -7.28498 3.60965 2.57698
0.002 -0.00046 -0.00303 -175.24442 -35.30141 2.10508 48.41663 -0.19319 -4.88003 -11.46065 5.40365 -0.41505 -16.48689 -5.47407 -9.18399 20.34786 101.54442 12.12525 1.15263 -22.03991 7.5106 1.19193 30.57785 -110.40385 16.94225 -3.14949 40.30248 -3.53357 -4.89631 -20.67389 -7.12988 -4.80013 -3.21176 43.86632 4.22189 4.00138 -25.06618 -7.29085 3.62857 2.58438
0.00206 -0.00047 -0.00314 -175.25838 -35.29238 2.13103 48.42395 -0.18256 -4.93751 -11.4735 5.40514 -0.41518 -16.54926 -5.45509 -9.27312 20.44656 101.51981 12.13863 1.14644 -22.14152 7.91459 -0.25365 30.59779 -106.58804 15.8897 -2.18668 40.29083 -3.54844 -4.90712 -20.6728 -7.13063 -4.80341 -3.21278 43.84324 4.19788 3.93082 -25.05547 -7.29644 3.64768 2.59265
